<svg xmlns="http://www.w3.org/2000/svg" viewBox="0 0 1600 1000"><defs><linearGradient id="g" x1="0" x2="1"><stop stop-color="#050816"/><stop offset="1" stop-color="#13102a"/></linearGradient><filter id="glow"><feGaussianBlur stdDeviation="10" result="b"/><feMerge><feMergeNode in="b"/><feMergeNode in="SourceGraphic"/></feMerge></filter></defs><rect width="1600" height="1000" rx="64" fill="url(#g)"/><g fill="#111827" stroke="#334155" stroke-width="3"><rect x="120" y="160" width="370" height="650" rx="30"/><rect x="615" y="160" width="370" height="650" rx="30"/><rect x="1110" y="160" width="370" height="650" rx="30"/></g><g fill="#f8fafc" opacity=".13"><rect x="165" y="220" width="220" height="16" rx="8"/><rect x="165" y="260" width="280" height="12" rx="6"/><rect x="660" y="220" width="220" height="16" rx="8"/><rect x="660" y="260" width="280" height="12" rx="6"/><rect x="1155" y="220" width="220" height="16" rx="8"/><rect x="1155" y="260" width="280" height="12" rx="6"/></g><g filter="url(#glow)"><path d="M195 620C270 510 350 680 430 450" fill="none" stroke="#60a5fa" stroke-width="10"/><path d="M690 620C760 400 845 710 930 430" fill="none" stroke="#a78bfa" stroke-width="10"/><path d="M1185 620C1260 520 1340 600 1425 360" fill="none" stroke="#34d399" stroke-width="10"/></g><g fill="none" stroke="#64748b" stroke-width="4" stroke-dasharray="14 12"><path d="M490 485h125"/><path d="M985 485h125"/></g><g fill="#f8fafc"><circle cx="552" cy="485" r="18"/><circle cx="1047" cy="485" r="18"/></g><g transform="translate(210 720)"><rect width="190" height="45" rx="22" fill="#1d4ed8"/><circle cx="28" cy="22" r="8" fill="#bfdbfe"/></g><g transform="translate(705 720)"><rect width="190" height="45" rx="22" fill="#6d28d9"/><circle cx="28" cy="22" r="8" fill="#ddd6fe"/></g><g transform="translate(1200 720)"><rect width="190" height="45" rx="22" fill="#047857"/><circle cx="28" cy="22" r="8" fill="#a7f3d0"/></g></svg>