<svg xmlns="http://www.w3.org/2000/svg" viewBox="0 0 1600 1000">
<defs>
 <linearGradient id="bg" x1="0" x2="1" y1="0" y2="1"><stop stop-color="#f8f6f1"/><stop offset="1" stop-color="#e8edf7"/></linearGradient>
 <linearGradient id="line" x1="0" x2="1"><stop stop-color="#2563eb"/><stop offset="1" stop-color="#7c3aed"/></linearGradient>
 <filter id="shadow"><feDropShadow dx="0" dy="28" stdDeviation="30" flood-opacity=".18"/></filter>
</defs>
<rect width="1600" height="1000" rx="64" fill="url(#bg)"/>
<circle cx="1320" cy="120" r="260" fill="#cbd5ff" opacity=".45"/>
<g filter="url(#shadow)">
 <rect x="120" y="110" width="1360" height="780" rx="36" fill="#111827"/>
 <rect x="160" y="150" width="1280" height="62" rx="16" fill="#1f2937"/>
 <circle cx="198" cy="181" r="8" fill="#ff6b6b"/><circle cx="226" cy="181" r="8" fill="#ffd166"/><circle cx="254" cy="181" r="8" fill="#76e09d"/>
 <rect x="160" y="245" width="330" height="280" rx="24" fill="#f8fafc"/>
 <rect x="530" y="245" width="910" height="280" rx="24" fill="#0b1220" stroke="#334155"/>
 <rect x="160" y="560" width="610" height="280" rx="24" fill="#0b1220" stroke="#334155"/>
 <rect x="810" y="560" width="630" height="280" rx="24" fill="#f8fafc"/>
</g>
<g opacity=".95">
 <circle cx="325" cy="355" r="88" fill="#e0e7ff"/><path d="M325 300v55l48 28" fill="none" stroke="#2563eb" stroke-width="18" stroke-linecap="round"/>
 <rect x="218" y="465" width="214" height="18" rx="9" fill="#cbd5e1"/>
 <path d="M585 465 C710 405 785 445 900 335 S1120 400 1365 292" fill="none" stroke="url(#line)" stroke-width="14" stroke-linecap="round"/>
 <path d="M585 455V300M760 455V360M930 455V280M1100 455V345M1270 455V250" stroke="#23304a" stroke-width="2"/>
 <g fill="#60a5fa"><circle cx="585" cy="465" r="12"/><circle cx="760" cy="405" r="12"/><circle cx="930" cy="335" r="12"/><circle cx="1100" cy="370" r="12"/><circle cx="1270" cy="292" r="12"/></g>
 <g fill="#22c55e"><rect x="220" y="740" width="70" height="62" rx="10"/><rect x="314" y="680" width="70" height="122" rx="10"/><rect x="408" y="630" width="70" height="172" rx="10"/><rect x="502" y="705" width="70" height="97" rx="10"/><rect x="596" y="585" width="70" height="217" rx="10"/></g>
 <path d="M860 755c70-95 160-28 225-105 52-63 130-54 290-20" fill="none" stroke="#7c3aed" stroke-width="12" stroke-linecap="round"/>
 <g fill="#dbeafe"><circle cx="900" cy="700" r="34"/><circle cx="1065" cy="655" r="34"/><circle cx="1230" cy="680" r="34"/><circle cx="1360" cy="640" r="34"/></g>
</g></svg>